<svg xmlns="http://www.w3.org/2000/svg" viewBox="0 0 256 256" fill="none" stroke="currentColor" stroke-width="16" stroke-linecap="round">
    <style>
        circle,path { color: #000; }
        @media (prefers-color-scheme: dark) {
            circle,path { color: #FFF; }
        }
    </style>
    <circle cx="128" cy="128" r="96"/>
    <path d="M88,144a94.87,94.87,0,0,1-4.14,16"/>
    <path d="M83.86,96A94.87,94.87,0,0,1,88,112"/>
    <path d="M60.66,59.58A94.93,94.93,0,0,1,68.27,68"/>
    <path d="M68.27,188a94.93,94.93,0,0,1-7.61,8.42"/>
    <path d="M168,144a94.87,94.87,0,0,0,4.14,16"/>
    <path d="M172.14,96A94.87,94.87,0,0,0,168,112"/>
    <path d="M195.34,59.58A94.93,94.93,0,0,0,187.73,68"/>
    <path d="M187.73,188a94.93,94.93,0,0,0,7.61,8.42"/>
</svg>